# xmcd
#
# Track frame offsets: 
#        150
#        21780
#        38115
#        59993
#        79289
#        97295
#        112377
#        137546
#        158422
#        185354
#        204744
#        232774
#        250432
#        271979
#        291469
#        316164
#        339271
#
# Disc length: 4794 seconds
#
# Revision: 1
# Processed by: cddbd v1.5.2PL0 Copyright (c) Steve Scherf et al.
# Submitted via: ExactAudioCopy v0.95a5
#
DISCID=fd12b811
DTITLE=Various Artist - Akella Presents - Modern Electric Blues - vol.2  CD1
DYEAR=2010
DGENRE=Blues
TTITLE0=VARGAS BLUES BAND - Del Sur
TTITLE1=COLIN JAMES - Standing on the Edge
TTITLE2=CHARLIE MUSSELWHITE - No
TTITLE3=PETER GREEN - Feeling Good
TTITLE4=TINO GONZALES - Tequila Nights
TTITLE5=REVEREND RUSTY - Born for the Blues
TTITLE6=JOHN CAMPBELL - One Believer
TTITLE7=STEVE PRYOR BAND - Movin' Me
TTITLE8=JULIAN SAS - Is This What They Call the Blues
TTITLE9=RARE EARTH - Keepin' Me Out Of The Storm
TTITLE10=TOTH BAGI BAND - Angel Left Me Today
TTITLE11=VARGAS BLUES BAND - Coward's Knife
TTITLE12=BIG HOUSE - Amarillo
TTITLE13=DAVE HOLE - More Love  Less Attitude
TTITLE14=CHRIS REA - And You My Love
TTITLE15=GREGG ROLIE - Breakin' My Heart
TTITLE16=RICK VITO - Blues Town
EXTD=
EXTT0=
EXTT1=
EXTT2=
EXTT3=
EXTT4=
EXTT5=
EXTT6=
EXTT7=
EXTT8=
EXTT9=
EXTT10=
EXTT11=
EXTT12=
EXTT13=
EXTT14=
EXTT15=
EXTT16=
PLAYORDER=
